{
  "accessors": [
    {
      "bufferView": 2,
      "componentType": 5126,
      "count": 15501,
      "max": [
        5.5766458511352539,
        -3.5490880012512207,
        3.5866949558258057
      ],
      "min": [
        -5.3583688735961914,
        -9.5162506103515625,
        -6.4494400024414062
      ],
      "type": "VEC3"
    },
    {
      "bufferView": 2,
      "byteOffset": 186012,
      "componentType": 5126,
      "count": 15501,
      "max": [
        0.999350905418396,
        0.99986177682876587,
        0.99921834468841553
      ],
      "min": [
        -0.9999852180480957,
        -0.99570751190185547,
        -0.99885600805282593
      ],
      "type": "VEC3"
    },
    {
      "bufferView": 3,
      "componentType": 5126,
      "count": 15501,
      "max": [
        0.99994832277297974,
        0.99993669986724854,
        0.99996227025985718,
        1
      ],
      "min": [
        -0.99987953901290894,
        -0.99999421834945679,
        -0.99997907876968384,
        -1
      ],
      "type": "VEC4"
    },
    {
      "bufferView": 1,
      "componentType": 5126,
      "count": 15501,
      "max": [
        0.99838602542877197,
        0.99901598691940308
      ],
      "min": [
        0.0016680000117048621,
        0.0015800000401213765
      ],
      "type": "VEC2"
    },
    {
      "bufferView": 0,
      "componentType": 5125,
      "count": 50229,
      "max": [
        15500
      ],
      "min": [
        0
      ],
      "type": "SCALAR"
    }
  ],
  "asset": {
    "extras": {
      "author": "mustafasahinfb (https://sketchfab.com/mustafasahinfb)",
      "license": "CC-BY-4.0 (http://creativecommons.org/licenses/by/4.0/)",
      "source": "https://sketchfab.com/models/69db9de4d5c446a895cec3c2a048f7a8",
      "title": "Cat"
    },
    "generator": "Sketchfab-3.18.6",
    "version": "2.0"
  },
  "bufferViews": [
    {
      "buffer": 0,
      "byteLength": 200916,
      "byteOffset": 0,
      "name": "floatBufferViews",
      "target": 34963
    },
    {
      "buffer": 0,
      "byteLength": 124008,
      "byteOffset": 200916,
      "byteStride": 8,
      "name": "floatBufferViews",
      "target": 34962
    },
    {
      "buffer": 0,
      "byteLength": 372024,
      "byteOffset": 324924,
      "byteStride": 12,
      "name": "floatBufferViews",
      "target": 34962
    },
    {
      "buffer": 0,
      "byteLength": 248016,
      "byteOffset": 696948,
      "byteStride": 16,
      "name": "floatBufferViews",
      "target": 34962
    }
  ],
  "buffers": [
    {
      "byteLength": 944964,
      "uri": "scene.bin"
    }
  ],
  "images": [
    {
      "uri": "textures/catr_baseColor.jpg"
    }
  ],
  "materials": [
    {
      "doubleSided": true,
      "emissiveFactor": [
        0,
        0,
        0
      ],
      "name": "catr",
      "pbrMetallicRoughness": {
        "baseColorFactor": [
          1,
          1,
          1,
          1
        ],
        "baseColorTexture": {
          "index": 0,
          "texCoord": 0
        },
        "metallicFactor": 0,
        "roughnessFactor": 0.59999999999999998
      }
    }
  ],
  "meshes": [
    {
      "name": "default_catr_0",
      "primitives": [
        {
          "attributes": {
            "NORMAL": 1,
            "POSITION": 0,
            "TANGENT": 2,
            "TEXCOORD_0": 3
          },
          "indices": 4,
          "material": 0,
          "mode": 4
        }
      ]
    }
  ],
  "nodes": [
    {
      "children": [
        1
      ],
      "name": "RootNode (gltf orientation matrix)",
      "rotation": [
        -0.70710678118654746,
        -0,
        -0,
        0.70710678118654757
      ]
    },
    {
      "children": [
        2
      ],
      "name": "RootNode (model correction matrix)"
    },
    {
      "children": [
        3
      ],
      "matrix": [
        1,
        0,
        0,
        0,
        0,
        0,
        1,
        0,
        0,
        -1,
        0,
        0,
        0,
        0,
        0,
        1
      ],
      "name": "c257a6fedd2d45879a34fcb463f05917.fbx"
    },
    {
      "children": [
        4
      ],
      "name": "RootNode"
    },
    {
      "children": [
        5
      ],
      "matrix": [
        0.95510596907028689,
        0.2959303769511778,
        -0.014064133241761589,
        0,
        -0.23150655429675765,
        0.775118889526341,
        0.58787364494174643,
        0,
        0.18487104468777857,
        -0.5582256883169977,
        0.80883050000544832,
        0,
        0,
        4.5390596389770508,
        4.3978357315063477,
        1
      ],
      "name": "default"
    },
    {
      "mesh": 0,
      "name": "default_catr_0"
    }
  ],
  "samplers": [
    {
      "magFilter": 9729,
      "minFilter": 9987,
      "wrapS": 10497,
      "wrapT": 10497
    }
  ],
  "scene": 0,
  "scenes": [
    {
      "name": "OSG_Scene",
      "nodes": [
        0
      ]
    }
  ],
  "textures": [
    {
      "sampler": 0,
      "source": 0
    }
  ]
}

